<?xml version="1.0" encoding="UTF-8"?>
<svg id="Layer_1" data-name="Layer 1" xmlns="http://www.w3.org/2000/svg" viewBox="0 0 272.33 253.23">
  <defs>
    <style>
      .cls-1 {
        fill: #fff;
        stroke: #231f20;
        stroke-miterlimit: 10;
      }

      .cls-2 {
        fill: #be1e2d;
      }
    </style>
  </defs>
  <path class="cls-1" d="m45.01,106.48c.95-4.89,2.26-9.65,3.9-14.26,1.21-3.45,2.61-6.82,4.18-10.09,2.13-4.47,4.58-8.76,7.32-12.84,1.63-2.43,3.35-4.79,5.19-7.07.11-.16.23-.31.36-.46v53.36h22.93V14.25c-1.4.72-2.79,1.46-4.16,2.24-3.81,2.12-7.49,4.44-11.04,6.94-2.66,1.87-5.24,3.84-7.73,5.9-.15.13-.3.25-.45.37-2.94,2.46-5.77,5.04-8.47,7.74-2.7,2.71-5.29,5.53-7.74,8.48-.12.14-.24.29-.37.44-2.06,2.5-4.03,5.08-5.9,7.74-2.5,3.55-4.82,7.23-6.94,11.03-.77,1.37-1.52,2.76-2.23,4.16-3.01,5.88-5.57,12.03-7.64,18.4-.48,1.5-.94,3.01-1.37,4.53-1.18,4.17-2.15,8.42-2.9,12.74-.54,3.17-.97,6.37-1.28,9.61-.02.18-.04.36-.05.55h23.05c.31-2.92.76-5.8,1.34-8.64Z"/>
  <path class="cls-1" d="m65.96,223.9c2.49,2.06,5.07,4.03,7.73,5.9,3.55,2.5,7.23,4.82,11.04,6.94,1.37.78,2.76,1.52,4.16,2.24v-100.86h-22.93v85.78Z"/>
  <path class="cls-1" d="m20.67,138.66c.3,3.24.73,6.45,1.28,9.62.75,4.32,1.72,8.57,2.9,12.73.43,1.52.89,3.04,1.37,4.54,2.07,6.37,4.63,12.51,7.63,18.39.72,1.41,1.46,2.79,2.23,4.17l6.95-6.95,5.9-5.9,4.16-4.16c-1.57-3.27-2.97-6.64-4.18-10.09-1.64-4.61-2.95-9.37-3.9-14.25-.58-2.84-1.03-5.73-1.34-8.64h-23.05c.01.19.03.37.05.54Z"/>
  <path class="cls-1" d="m157.68,138.12v91.04c-.19.03-.39.05-.58.07-3.58.38-7.21.57-10.88.57s-7.31-.19-10.89-.57c-.2-.02-.39-.04-.58-.07v-91.04h-22.93v109.85c4.16,1.19,8.41,2.16,12.73,2.9,3.17.55,6.37.98,9.62,1.29.19.02.39.04.58.05,3.78.35,7.6.52,11.47.52s7.69-.17,11.46-.52c.19,0,.39-.03.58-.05,3.25-.31,6.44-.74,9.61-1.28h0l10.76-10.77,1.97-1.97v-94.35l-5.67-5.67h-17.26Z"/>
  <path class="cls-1" d="m180.61,15.09l-1.96-1.96-10.78-10.78c-3.16-.55-6.37-.98-9.61-1.28-.19-.02-.39-.04-.58-.05-3.77-.35-7.6-.52-11.46-.52s-7.69.17-11.47.52c-.19,0-.39.03-.58.05-3.25.31-6.45.74-9.62,1.29-4.32.74-8.57,1.71-12.73,2.9v109.86h22.93V24.07c.19-.03.38-.05.58-.07,3.58-.38,7.21-.57,10.89-.57s7.3.19,10.88.57c.19.02.39.04.58.07v91.05h17.26l5.67-5.67V15.09Z"/>
  <g>
    <path class="cls-2" d="m271.81,115.2c-.01-.2-.03-.39-.05-.58-.3-3.24-.73-6.44-1.28-9.61-.75-4.32-1.72-8.57-2.89-12.74-.44-1.52-.89-3.02-1.38-4.52-2.06-6.38-4.62-12.53-7.63-18.41-.72-1.4-1.46-2.79-2.24-4.16-2.12-3.81-4.44-7.49-6.94-11.04-1.87-2.66-3.84-5.23-5.9-7.73-.12-.15-.25-.3-.37-.44-2.45-2.95-5.03-5.77-7.74-8.48-2.7-2.7-5.53-5.28-8.47-7.74l-.45.45-15.4,15.4-.45.45-.36.36-6.72,6.72v66.04h-49.86v-21.98h-14.93v21.98h-30.93v-21.98h-14.93v21.98H0v38.56h19.84c-.71-2.88-1.33-5.79-1.83-8.71-.57-3.29-1.01-6.63-1.32-9.91-.02-.24-.05-.47-.06-.72l-.23-4.22h30.88l.38,3.58c.29,2.77.72,5.55,1.28,8.27.77,3.96,1.81,7.88,3.08,11.71h9.95v-23.56h114.84l5.65,5.65v-5.65h21.1v66.04l6.71,6.71.36.36.46.46,15.4,15.4.44.44c5.89-4.9,11.32-10.33,16.22-16.21.13-.15.25-.3.37-.45,2.07-2.5,4.04-5.08,5.9-7.73,2.5-3.55,4.82-7.23,6.95-11.03.77-1.38,1.51-2.76,2.24-4.17,3-5.88,5.56-12.03,7.62-18.4.49-1.5.95-3.01,1.38-4.53,1.17-4.16,2.14-8.41,2.89-12.73.55-3.17.98-6.38,1.28-9.62.02-.19.04-.38.06-.58.34-3.77.51-7.6.51-11.46s-.17-7.69-.52-11.47Zm-35.37,45.22c-9.11,0-16.5-15.11-16.5-33.76s7.39-33.76,16.5-33.76,16.5,15.11,16.5,33.76-7.39,33.76-16.5,33.76Z"/>
    <polygon class="cls-2" points="182.45 113.47 176.77 119.14 182.45 119.14 182.45 113.47"/>
  </g>
  <g>
    <path class="cls-2" d="m271.81,115.2c-.01-.2-.03-.39-.05-.58-.3-3.24-.73-6.44-1.28-9.61-.75-4.32-1.72-8.57-2.89-12.74-.44-1.52-.89-3.02-1.38-4.52-2.06-6.38-4.62-12.53-7.63-18.41-.72-1.4-1.46-2.79-2.24-4.16-2.12-3.81-4.44-7.49-6.94-11.04-1.87-2.66-3.84-5.23-5.9-7.73-.12-.15-.25-.3-.37-.44-2.45-2.95-5.03-5.77-7.74-8.48-2.7-2.7-5.53-5.28-8.47-7.74l-.45.45-15.4,15.4-.45.45-.36.36-6.72,6.72v66.04h-49.86v-21.98h-14.93v21.98h-30.93v-21.98h-14.93v21.98H0v38.56h19.84c-.71-2.88-1.33-5.79-1.83-8.71-.57-3.29-1.01-6.63-1.32-9.91-.02-.24-.05-.47-.06-.72l-.23-4.22h30.88l.38,3.58c.29,2.77.72,5.55,1.28,8.27.77,3.96,1.81,7.88,3.08,11.71h9.95v-23.56h114.84l5.65,5.65v-5.65h21.1v66.04l6.71,6.71.36.36.46.46,15.4,15.4.44.44c5.89-4.9,11.32-10.33,16.22-16.21.13-.15.25-.3.37-.45,2.07-2.5,4.04-5.08,5.9-7.73,2.5-3.55,4.82-7.23,6.95-11.03.77-1.38,1.51-2.76,2.24-4.17,3-5.88,5.56-12.03,7.62-18.4.49-1.5.95-3.01,1.38-4.53,1.17-4.16,2.14-8.41,2.89-12.73.55-3.17.98-6.38,1.28-9.62.02-.19.04-.38.06-.58.34-3.77.51-7.6.51-11.46s-.17-7.69-.52-11.47Zm-35.37,45.22c-9.11,0-16.5-15.11-16.5-33.76s7.39-33.76,16.5-33.76,16.5,15.11,16.5,33.76-7.39,33.76-16.5,33.76Z"/>
    <polygon class="cls-2" points="182.45 113.47 176.77 119.14 182.45 119.14 182.45 113.47"/>
  </g>
</svg>