<svg id="visual" viewBox="0 0 900 600" width="900" height="600" xmlns="http://www.w3.org/2000/svg" xmlns:xlink="http://www.w3.org/1999/xlink" version="1.1"><path d="M0 217L300 175L600 133L900 193L900 0L600 0L300 0L0 0Z" fill="#038373"></path><path d="M0 301L300 271L600 289L900 313L900 191L600 131L300 173L0 215Z" fill="#009b7f"></path><path d="M0 487L300 493L600 535L900 493L900 311L600 287L300 269L0 299Z" fill="#00b388"></path><path d="M0 601L300 601L600 601L900 601L900 491L600 533L300 491L0 485Z" fill="#00cc8e"></path></svg>